<svg xmlns="http://www.w3.org/2000/svg" xmlns:xlink="http://www.w3.org/1999/xlink" fill-rule="evenodd" stroke-linejoin="round" stroke-miterlimit="2" clip-rule="evenodd" viewBox="0 0 595 167"><use width="1333" height="344" x="541.7" y="250.4" transform="matrix(.99897 0 0 1.00073 -373.2 -222.5)" xlink:href="#_Image1"/><path fill="#26348B" d="M111.6 166.2h-8.7V13c0-.5 0-1-.3-1.5a4.4 4.4 0 00-4-2.8H13A4.4 4.4 0 008.7 13v153.2H0V0h111.6v166.2z"/><path fill="#26348B" d="M87.8 153.2l-79.1 13V13a4.4 4.4 0 011.2-3 4.3 4.3 0 013-1.3h70.6c.5 0 1 0 1.5.2a4.3 4.3 0 012.8 4v140.3zM74.8 85a4.3 4.3 0 110 8.7 4.3 4.3 0 010-8.7z"/><g><g transform="matrix(.31978 0 0 .31955 168.2 28.2)"><clipPath id="a"><path d="M0 0h1332v343H0z"/></clipPath><g fill="#26348B" fill-rule="nonzero" clip-path="url(#a)"><path d="M0 0v57h76V0H0zM1234.2 16a260 260 0 00-25.9 2.4c-.7.6-4.1 52.4-4.2 63.3l-.1 5.3h-42v50h40v66.7c0 79.8.6 85.9 9.6 105 8.5 17.9 24.9 28.8 49.3 32.8 16.3 2.7 50.4 1.2 68.9-3l2.2-.5v-56.2l-2.2.5c-8 2-17.3 2.9-26.1 2.5-15.4-.5-22.2-4.6-25.9-15.7-.9-2.7-1.3-20.5-1.6-67.9l-.3-64.2h51.1V87h-51V14l-8.2.1c-4.6.1-19.7.9-33.6 1.9zM221.5 81.1c-17.5 1.9-35.7 8-50.3 17a136 136 0 00-31.1 28.7 135.2 135.2 0 00-22.7 54.2 257.2 257.2 0 00-.1 62 123.6 123.6 0 0052 82 105.6 105.6 0 0033.6 14.7 166 166 0 0055.2 1.8c42.8-7.1 74.4-35.1 84.4-74.8 3.2-13 4-19.7 2.3-19.7l-32.2-3.5c-17-2-31-3.4-31.2-3.2-.2.1-1 3.8-1.9 8.2-4.7 22.8-16 37-32.8 41.1a24.9 24.9 0 01-13.5.5c-23.9-4.4-36.8-27.9-38.8-70.6-2-41.6 8.5-73.3 27.3-82.8 23.7-12 46.3 2 54.3 33.7 1.1 4.4 2 9 2 10.3 0 1.2.4 2.3.9 2.3 2.8 0 66.5-7 66.8-7.4a117 117 0 00-4.8-24.2 98.5 98.5 0 00-52.3-61.5 127.8 127.8 0 00-67.1-8.8zM485 80.7c-31.9 3.2-58.3 15-79.1 35.3a123.6 123.6 0 00-36.5 73.2c-2.2 14.8-1.5 43 1.4 56.3a118.8 118.8 0 00101.7 96.1c14.3 2.2 46.4 1.4 59-1.5 38.2-8.9 65.1-28.8 80.4-59.7 4.7-9.6 8.6-20.2 7.7-21.1-.4-.5-63-6.1-70.2-6.3-.6 0-2.2 2.8-3.4 6.1a49.6 49.6 0 01-27.9 28c-7.8 3-21.6 3.7-31.2 1.5-22.8-5.1-37-24.9-39.5-55l-.7-8.6h174.6l-.6-18.8c-.7-26.2-4.5-44.3-12.7-61.9a106 106 0 00-75-60.8c-13.1-3-34.4-4.2-48-2.8zm20 49.3a44.3 44.3 0 0133.2 24.6 77 77 0 015.8 25v3.4h-96.2l.7-5.3c2-14.7 7-26.3 15-34.6a40.3 40.3 0 0121.8-12.6 43.5 43.5 0 0119.7-.5zM753.6 81.1a115 115 0 00-70.8 33.3C658.9 138.5 647 170.8 647 212c0 41.5 12 73.9 36.5 98.5a108.2 108.2 0 0051.4 29.2 166 166 0 0055.2 1.8c46.3-7.7 78.7-39.4 86.5-84.8.9-4.9 1.4-9 1.2-9.2-.2-.1-14.7-1.9-32.2-3.9-33.7-3.8-33.5-3.8-33.6.8 0 4.3-3.4 15.5-6.7 22.3-10.4 21.4-32.6 29.8-51.6 19.5-17.4-9.4-27.7-37.4-27.7-75.2 0-30.7 6.8-55.5 18.7-67.6a35.2 35.2 0 0138.6-8.2c11.9 5.5 20.9 19 24.9 37.4l2.4 10.2c.2.4 66.6-6.7 67.1-7.2 1.6-1.5-5.4-27.3-10.4-38.5-6-13.5-19.3-29.7-32-38.7-20.4-14.7-50.3-21-81.7-17.3zM1005.6 81.1c-45.2 4-77.9 22.8-92.6 53.2-3.7 7.8-7.8 20.2-6.9 21.1.4.4 64.9 7.6 68 7.6 1.1 0 1.9-1.2 2.4-3.8 1-5.7 6.4-15 10.9-18.9 9.2-7.9 21-11.6 37.6-11.7 19.1-.1 31 5.6 36.9 17.6 3 6.1 5 16 5.1 25v3.8h-7.7c-23.6 0-59 4.2-79.8 9.5-44.8 11.2-70.7 31.8-78.2 62.1-2.5 10.2-2.2 31.4.5 41.7 3.4 12.5 8.4 21 18.2 30.8a52 52 0 0019 13.7c33.4 16 76.9 13 105.5-7.3 6.9-4.9 15.8-14 20.1-20.4l2.9-4.5.7 5 1.8 14.6a132 132 0 002.1 13.2l1 3.6h36.9c20.4 0 37-.3 37-.8 0-.4-.9-3.1-2-5.9-5-13.3-5.3-17.6-6-100.3-.6-67.1-.9-78.4-2.4-84.5-7.4-31.2-22.1-48.4-49.1-57.4a212.3 212.3 0 00-81.9-7zm61.1 149.3c-.3 9-1.3 18-2.2 21.7a55.1 55.1 0 01-40.2 40c-7.9 1.6-20.4.6-27.7-2.1-7.9-3-14.7-9.7-17.1-16.9-2.7-8.1-1.8-20 2-27 10-18.3 39.3-29.5 80.9-30.9l4.9-.2-.6 15.4zM0 87v250h76V87H0z"/></g></g></g></svg>